<svg width="147" height="147" viewBox="0 0 147 147" fill="none" xmlns="http://www.w3.org/2000/svg">
<path d="M73.5 89.1502L18.7243 143.926C16.6749 145.975 14.0665 147 10.8992 147C7.73194 147 5.12357 145.975 3.07414 143.926C1.02471 141.876 0 139.268 0 136.101C0 132.933 1.02471 130.325 3.07414 128.276L57.8498 73.5L3.07414 18.7243C1.02471 16.6749 0 14.0665 0 10.8992C0 7.73194 1.02471 5.12357 3.07414 3.07414C5.12357 1.02471 7.73194 0 10.8992 0C14.0665 0 16.6749 1.02471 18.7243 3.07414L73.5 57.8498L128.276 3.07414C130.325 1.02471 132.933 0 136.101 0C139.268 0 141.876 1.02471 143.926 3.07414C145.975 5.12357 147 7.73194 147 10.8992C147 14.0665 145.975 16.6749 143.926 18.7243L89.1502 73.5L143.926 128.276C145.975 130.325 147 132.933 147 136.101C147 139.268 145.975 141.876 143.926 143.926C141.876 145.975 139.268 147 136.101 147C132.933 147 130.325 145.975 128.276 143.926L73.5 89.1502Z" fill="black"/>
</svg>
