<svg width="17" height="18" viewBox="0 0 17 18" fill="none" xmlns="http://www.w3.org/2000/svg">
<path d="M8.375 18C8.15833 18 7.946 17.9627 7.738 17.888C7.52933 17.8127 7.33333 17.7083 7.15 17.575L0.4 12.325C0.133333 12.125 0.00433335 11.8623 0.013 11.537C0.021 11.2123 0.158334 10.95 0.425 10.75C0.608334 10.6167 0.808333 10.55 1.025 10.55C1.24167 10.55 1.44167 10.6167 1.625 10.75L8.375 15.975L15.125 10.75C15.3083 10.6167 15.5083 10.55 15.725 10.55C15.9417 10.55 16.1417 10.6167 16.325 10.75C16.5917 10.95 16.7293 11.2123 16.738 11.537C16.746 11.8623 16.6167 12.125 16.35 12.325L9.6 17.575C9.41667 17.7083 9.221 17.8127 9.013 17.888C8.80433 17.9627 8.59167 18 8.375 18ZM8.375 12.95C8.15833 12.95 7.946 12.9127 7.738 12.838C7.52933 12.7627 7.33333 12.6583 7.15 12.525L0.4 7.275C0.266667 7.175 0.166667 7.05433 0.0999999 6.913C0.0333332 6.771 0 6.625 0 6.475C0 6.325 0.0333332 6.179 0.0999999 6.037C0.166667 5.89567 0.266667 5.775 0.4 5.675L7.15 0.425C7.33333 0.291667 7.52933 0.187333 7.738 0.112C7.946 0.0373333 8.15833 0 8.375 0C8.59167 0 8.80433 0.0373333 9.013 0.112C9.221 0.187333 9.41667 0.291667 9.6 0.425L16.35 5.675C16.4833 5.775 16.5833 5.89567 16.65 6.037C16.7167 6.179 16.75 6.325 16.75 6.475C16.75 6.625 16.7167 6.771 16.65 6.913C16.5833 7.05433 16.4833 7.175 16.35 7.275L9.6 12.525C9.41667 12.6583 9.221 12.7627 9.013 12.838C8.80433 12.9127 8.59167 12.95 8.375 12.95Z" fill="black"/>
</svg>
