<svg width="18" height="18" viewBox="0 0 18 18" fill="none" xmlns="http://www.w3.org/2000/svg">
<path d="M1 14C0.716667 14 0.479333 13.904 0.288 13.712C0.0960001 13.5207 0 13.2833 0 13C0 12.7167 0.0960001 12.479 0.288 12.287C0.479333 12.0957 0.716667 12 1 12H11C11.2833 12 11.521 12.0957 11.713 12.287C11.9043 12.479 12 12.7167 12 13C12 13.2833 11.9043 13.5207 11.713 13.712C11.521 13.904 11.2833 14 11 14H1ZM1 6C0.716667 6 0.479333 5.904 0.288 5.712C0.0960001 5.52067 0 5.28333 0 5C0 4.71667 0.0960001 4.479 0.288 4.287C0.479333 4.09567 0.716667 4 1 4H11C11.2833 4 11.521 4.09567 11.713 4.287C11.9043 4.479 12 4.71667 12 5C12 5.28333 11.9043 5.52067 11.713 5.712C11.521 5.904 11.2833 6 11 6H1ZM1 10C0.716667 10 0.479333 9.904 0.288 9.712C0.0960001 9.52067 0 9.28333 0 9C0 8.71667 0.0960001 8.479 0.288 8.287C0.479333 8.09567 0.716667 8 1 8H17C17.2833 8 17.5207 8.09567 17.712 8.287C17.904 8.479 18 8.71667 18 9C18 9.28333 17.904 9.52067 17.712 9.712C17.5207 9.904 17.2833 10 17 10H1ZM1 18C0.716667 18 0.479333 17.904 0.288 17.712C0.0960001 17.5207 0 17.2833 0 17C0 16.7167 0.0960001 16.4793 0.288 16.288C0.479333 16.096 0.716667 16 1 16H17C17.2833 16 17.5207 16.096 17.712 16.288C17.904 16.4793 18 16.7167 18 17C18 17.2833 17.904 17.5207 17.712 17.712C17.5207 17.904 17.2833 18 17 18H1ZM1 2C0.716667 2 0.479333 1.904 0.288 1.712C0.0960001 1.52067 0 1.28333 0 1C0 0.716667 0.0960001 0.479 0.288 0.287C0.479333 0.0956666 0.716667 0 1 0H17C17.2833 0 17.5207 0.0956666 17.712 0.287C17.904 0.479 18 0.716667 18 1C18 1.28333 17.904 1.52067 17.712 1.712C17.5207 1.904 17.2833 2 17 2H1Z" fill="black"/>
</svg>
