<svg width="72" height="80" viewBox="0 0 72 80" fill="none" xmlns="http://www.w3.org/2000/svg">
<path d="M40 72V76C40 77.1333 39.6167 78.0833 38.85 78.85C38.0833 79.6167 37.1333 80 36 80C34.8667 80 33.9167 79.6167 33.15 78.85C32.3833 78.0833 32 77.1333 32 76V60C32 58.8667 32.3833 57.9167 33.15 57.15C33.9167 56.3833 34.8667 56 36 56C37.1333 56 38.0833 56.3833 38.85 57.15C39.6167 57.9167 40 58.8667 40 60V64H68C69.1333 64 70.0833 64.3833 70.85 65.15C71.6167 65.9167 72 66.8667 72 68C72 69.1333 71.6167 70.0833 70.85 70.85C70.0833 71.6167 69.1333 72 68 72H40ZM4 72C2.86667 72 1.91667 71.6167 1.15 70.85C0.383333 70.0833 0 69.1333 0 68C0 66.8667 0.383333 65.9167 1.15 65.15C1.91667 64.3833 2.86667 64 4 64H20C21.1333 64 22.0833 64.3833 22.85 65.15C23.6167 65.9167 24 66.8667 24 68C24 69.1333 23.6167 70.0833 22.85 70.85C22.0833 71.6167 21.1333 72 20 72H4ZM26.4 35.7H45.7L49.1 45.5C49.3667 46.2333 49.8333 46.8333 50.5 47.3C51.1667 47.7667 51.9 48 52.7 48C54.0333 48 55.1 47.4333 55.9 46.3C56.7 45.1667 56.8333 43.9667 56.3 42.7L41.3 2.6C40.9667 1.8 40.4667 1.16667 39.8 0.7C39.1333 0.233333 38.3667 0 37.5 0H34.5C33.6333 0 32.8667 0.233333 32.2 0.7C31.5333 1.16667 31.0333 1.8 30.7 2.6L15.6 42.8C15.1333 44.0667 15.2833 45.25 16.05 46.35C16.8167 47.45 17.8667 48 19.2 48C20.0667 48 20.8167 47.7667 21.45 47.3C22.0833 46.8333 22.5667 46.2 22.9 45.4L26.4 35.7ZM28.8 28.8L35.8 8.9H36.2L43.2 28.8H28.8Z" fill="black"/>
</svg>
